<?xml version="1.0"?>
<svg width="1280" height="934" xmlns="http://www.w3.org/2000/svg" xmlns:svg="http://www.w3.org/2000/svg" preserveAspectRatio="xMidYMid meet">
 <metadata>Created by potrace 1.15, written by Peter Selinger 2001-2017</metadata>
 <g class="layer">
  <title>Layer 1</title>
  <g fill="#000000" id="svg_1" transform="translate(0 934) scale(0.1 -0.1)">
   <path d="m920.05009,9279.16693c-50.97847,-20.82342 -92.18024,-86.00977 -172.48879,-270.70442c-41.20177,-95.96879 -114.52697,-264.36686 -162.01376,-373.91614c-48.18513,-109.54928 -107.54362,-246.25954 -132.68368,-303.2976c-24.44173,-57.03806 -69.13518,-159.34441 -99.16359,-226.34149c-162.71209,-367.57858 -274.44572,-630.13471 -283.52408,-663.63325c-8.38002,-32.59317 -9.77669,-412.84688 -8.38002,-2699.80129l2.09501,-2661.77592l20.95005,-53.41659c11.17336,-28.97171 34.21842,-67.90245 50.97847,-86.91513c60.05682,-68.80781 -74.72186,-63.37562 1578.93581,-63.37562c1398.067,0 1486.75556,0.90537 1518.87898,15.39122c49.5818,23.53951 102.65527,93.25269 123.60532,161.15514l16.76004,54.32196l0,2652.72226l0,2652.72226l-15.36337,42.5522c-7.68169,22.63415 -71.23019,171.11417 -140.36537,330.45857c-69.13518,158.43904 -194.13718,447.25078 -279.33407,640.9991c-368.02263,846.51717 -349.86592,809.39717 -425.28612,846.51717c-37.01176,18.10732 -51.6768,18.10732 -803.78377,17.20195c-525.14804,-0.90537 -773.75536,-3.62146 -789.81707,-10.86439l0.00001,0.00001zm885.48899,-1055.65671c87.2919,-35.30927 145.95205,-101.40099 184.36048,-207.3288c20.95005,-56.13269 22.34673,-67.90245 22.34673,-155.72294c0,-87.8205 -1.39667,-99.59026 -22.34673,-155.72294c-38.40843,-105.92782 -97.06859,-172.01953 -184.36048,-207.3288c-197.62885,-79.6722 -402.93939,152.10148 -370.11764,418.27907c28.63174,226.34149 206.00887,373.91614 370.11764,307.82443l0,-0.00002z" fill="black" id="svg_2"/>
  </g>
 </g>
</svg>